<svg t="1736241009525" class="icon" viewBox="0 0 1024 1024" version="1.1" xmlns="http://www.w3.org/2000/svg" p-id="5981" width="32" height="32"><path d="M847.872 209.408c-0.512-0.512-0.512-1.024-1.024-1.024-61.952-28.672-127.488-48.64-194.56-60.416-1.024 0-2.56 0.512-3.072 1.536-8.704 16.384-16.896 32.768-24.064 49.664-72.704-10.752-145.92-10.752-218.624 0-7.168-16.896-15.36-33.792-24.576-49.664-0.512-1.024-2.048-1.536-3.072-1.536-67.072 11.776-132.608 31.744-194.56 60.416-0.512 0-1.024 0.512-1.536 1.024C58.368 394.24 24.576 574.976 40.96 753.152c0 1.024 0.512 1.536 1.024 2.048C114.688 808.96 195.072 849.92 281.088 876.032c1.024 0.512 2.56 0 3.584-1.024 18.432-25.088 34.816-51.712 48.64-79.36 0.512-1.536 0-3.072-1.536-4.096h-0.512c-25.6-9.728-50.688-21.504-74.752-35.328-1.536-1.024-2.048-2.56-1.024-4.096 0-0.512 0.512-0.512 1.024-1.024 5.12-3.584 9.728-7.68 14.848-11.776 1.024-0.512 2.048-1.024 3.072-0.512 156.672 71.168 326.144 71.168 480.768 0 1.024-0.512 2.048-0.512 3.072 0.512 4.608 4.096 9.728 7.68 14.848 11.776 1.536 1.024 1.536 3.072 0.512 4.096 0 0.512-0.512 0.512-1.024 1.024-24.064 13.824-48.64 25.6-74.752 35.328-1.536 0.512-2.56 2.56-1.536 4.096v0.512c14.336 27.648 30.72 54.272 48.64 79.36 0.512 1.024 2.048 1.536 3.584 1.024C834.56 849.92 915.456 808.96 988.16 755.712c0.512-0.512 1.024-1.536 1.024-2.048 19.968-206.336-33.28-385.536-141.312-544.256z m-491.008 435.2c-47.104 0-86.016-43.008-86.016-96.256s37.888-96.256 86.016-96.256 86.528 43.52 86.016 96.256c-0.512 53.248-38.4 96.256-86.016 96.256z m317.44 0c-47.104 0-86.016-43.008-86.016-96.256s37.888-96.256 86.016-96.256 86.528 43.52 86.016 96.256c0 53.248-37.888 96.256-86.016 96.256z" p-id="5982" fill="#8378c0"></path></svg>