<svg xmlns="http://www.w3.org/2000/svg" xml:space="preserve" id="图层_1" x="0" y="0" version="1.1" viewBox="0 0 850.4 283.5"><style>.st0{fill:#fff}</style><switch><g><path d="M337.3 96.9c-13.7 0-24.2 7.8-24.2 19.4 0 11.2 8.9 15.1 20 17.2l14 2.3c18.5 3.1 31.4 11.6 31.4 31.9 0 21.2-17.4 33.5-39.5 33.5-20 0-38.8-11.8-41.5-34.8-.2-1.9 1.3-3.6 3.2-3.6h8.4c1.6 0 3 1.2 3.2 2.8 2 16.3 14.6 22.8 26.9 22.8 13.5 0 24.2-6.7 24.2-20.2 0-12-8.6-16.3-20-18.4l-13.8-2.4c-19.4-3.3-31.6-12.5-31.6-30.3 0-20.5 17.9-33 39.4-33 17.2 0 36.1 9.7 39.7 32.5.3 2-1.2 3.7-3.2 3.7h-8.7c-1.6 0-2.9-1.1-3.2-2.7-2.5-15.2-13.6-20.7-24.7-20.7zm96.8 12.6c20.7 0 35.4 11.1 40.6 29.1.6 2-1 4.1-3.1 4.1h-9.8c-1.4 0-2.6-.9-3-2.2-3.6-10.3-12-16.1-24.7-16.1-17.3 0-27 14.1-27 31s9.7 31 27 31c12.7 0 21.1-5.9 24.7-16.1.5-1.3 1.7-2.2 3-2.2h9.7c2.1 0 3.7 2.1 3.1 4.1-5.6 18.8-19.8 29-40.6 29-26.6 0-43.6-20.6-43.6-45.8.2-25.3 17.1-45.9 43.7-45.9zm56.3 77h20.9v-57.9h-18.6c-1.8 0-3.2-1.4-3.2-3.2v-8.2c0-1.8 1.4-3.2 3.2-3.2H518c5.3 0 9.7 4.3 9.7 9.7v2.3c4.6-11.1 14.5-13.8 29.9-13.8 5.9 0 9.8 1 12 1.8 1.3.5 2.1 1.7 2.1 3v8.5c0 2.2-2.1 3.7-4.2 3.1-2.8-.9-6.6-1.7-11.7-1.7-16.4 0-28.1 11.2-28.1 30.5v29.1h26.8c1.8 0 3.2 1.4 3.2 3.2v8.2c0 1.8-1.4 3.2-3.2 3.2h-64.1c-1.8 0-3.2-1.4-3.2-3.2v-8.2c0-1.8 1.4-3.2 3.2-3.2zm93.5-31.2c0-25.2 16.8-45.8 43.9-45.8s43.9 20.6 43.9 45.8-16.8 45.8-43.9 45.8-43.9-20.6-43.9-45.8zm43.9 31c17.5 0 27.5-14.1 27.5-31s-10.1-31-27.5-31c-17.5 0-27.5 14.1-27.5 31s10 31 27.5 31zm80.3.9h25.2c1.8 0 3.2 1.4 3.2 3.2v7.5c0 1.8-1.4 3.2-3.2 3.2h-37.7c-1.8 0-3.2-1.4-3.2-3.2V98.7h-12.5c-1.8 0-3.2-1.4-3.2-3.2V88c0-1.8 1.4-3.2 3.2-3.2h18.6c5.3 0 9.7 4.3 9.7 9.7v92.7zm55.7 0H789c1.8 0 3.2 1.4 3.2 3.2v7.5c0 1.8-1.4 3.2-3.2 3.2h-37.7c-1.8 0-3.2-1.4-3.2-3.2V98.7h-12.5c-1.8 0-3.2-1.4-3.2-3.2V88c0-1.8 1.4-3.2 3.2-3.2h18.6c5.3 0 9.7 4.3 9.7 9.7v92.7zM83.7 118.8c-7.8-7.4-13.3-16.9-13.3-28.3v-1.2c.6-19.4 16.6-35 35.9-35.6h123.4c3.2.1 5.8 2.4 5.8 5.7v104.4c2.9.5 4.2.9 6.9 1.9 2.1.8 5.2 2.5 5.2 2.5V59.4c-.2-9.9-8-17.9-17.9-17.9H106.3c-26.6.4-48.1 22.2-48.1 48.9 0 15.5 7.1 28.8 18.7 38.1.8.6 1.5 1.4 3.6 1.4 3.6 0 6.2-2.9 6-6-.1-2.6-1.2-3.5-2.8-5.1z" class="st0"/><path d="M226.5 170.7h-96.8c-6.5.1-11.7 5.3-11.7 11.8v13.9c.2 6.4 5.7 11.9 12.1 11.9h7.2v-11.9h-7.2v-13.6h3.9c12.2 0 21.2 11.4 21.2 23.5 0 10.7-9.8 24.5-26.2 23.4-14.6-1-22.4-13.9-22.4-23.4v-118c0-5.3-4.3-9.7-9.7-9.7h-9.6v12h7.2v115.6c-.4 23.5 16.7 35.4 34.6 35.4l97.5.3c19.7 0 35.6-16 35.6-35.6s-16-35.6-35.7-35.6zm23.5 36.4c-.4 12.6-10.8 22.7-23.5 22.7l-67.8-.3c5.4-6.3 8.7-14.4 8.7-23.2 0-13.9-8.3-23.5-8.3-23.5h67.5c13 0 23.5 10.5 23.5 23.5l-.1.8zM200.5 92.9h-73v-12h73c3.3 0 6 2.7 6 6s-2.7 6-6 6z" class="st0"/><path d="M200.5 149.7h-73v-12h73c3.3 0 6 2.7 6 6s-2.7 6-6 6zm12.8-28.4h-85.8v-12h85.8c3.3 0 6 2.7 6 6s-2.6 6-6 6z" class="st0"/></g></switch></svg>