<svg t="1736241274427" class="icon" viewBox="0 0 1024 1024" version="1.1" xmlns="http://www.w3.org/2000/svg" p-id="8246" width="32" height="32"><path d="M572.16 512.298667c0 147.2-118.570667 266.538667-264.746667 266.538666C161.194667 778.837333 42.666667 659.541333 42.666667 512.298667 42.666667 365.098667 161.194667 245.76 307.413333 245.76c146.176 0 264.704 119.338667 264.704 266.538667z m290.389333 0c0 138.581333-59.306667 250.88-132.352 250.88-73.130667 0-132.394667-112.341333-132.394666-250.88s59.306667-250.88 132.394666-250.88c73.088 0 132.352 112.341333 132.352 250.88z m118.784 0c0 124.16-20.864 224.810667-46.549333 224.810666-25.728 0-46.549333-100.693333-46.549333-224.810666 0-124.16 20.821333-224.810667 46.549333-224.810667S981.333333 388.181333 981.333333 512.341333z" p-id="8247" fill="#8378c0"></path></svg>